<svg width="22" height="22" viewBox="0 0 22 22" fill="none" xmlns="http://www.w3.org/2000/svg">
<path d="M18.9763 5.88116C18.5863 5.47516 18.1553 5.13016 17.6973 4.85316C18.0453 3.10216 17.2973 1.32316 17.2033 1.10816C17.1033 0.882157 16.9253 0.701157 16.7003 0.600157C16.5523 0.533157 13.0483 -1.01584 10.9413 1.14416C10.7403 1.33716 10.5713 1.54016 10.4303 1.75116C10.3713 1.65616 10.3113 1.56316 10.2493 1.47016C9.94133 1.01016 9.32033 0.887157 8.86233 1.19616C8.40333 1.50316 8.28033 2.12416 8.58833 2.58316C9.10333 3.35216 9.45833 4.20416 9.64132 5.09616C8.83333 4.45916 7.87232 4.09516 6.84932 4.05416C5.31132 3.99216 3.76733 4.65816 2.59433 5.88116C1.24133 7.29216 -2.72467 12.4502 3.02733 19.6242C4.70433 21.7142 6.80633 22.0022 8.67833 22.0022C9.04733 22.0022 9.40733 21.9912 9.75333 21.9802C10.4453 21.9592 11.1243 21.9592 11.8163 21.9802C13.9153 22.0432 16.5343 22.1262 18.5423 19.6242C24.2943 12.4512 20.3283 7.29216 18.9753 5.88216L18.9763 5.88116ZM12.3513 2.56316C13.2133 1.67816 14.7973 2.05516 15.5123 2.28916C15.6603 2.75016 15.8243 3.46316 15.7793 4.12516C15.4293 4.06416 15.0753 4.03916 14.7223 4.05316C13.6983 4.09516 12.7363 4.45916 11.9283 5.09716C11.7213 4.20916 11.6783 3.21116 12.3523 2.56316H12.3513ZM16.9833 18.3722C15.6013 20.0952 13.8773 20.0392 11.8803 19.9802C11.1463 19.9582 10.4273 19.9582 9.69233 19.9802C7.69733 20.0422 5.97132 20.0962 4.58932 18.3722C-0.0156751 12.6302 2.69232 8.71216 4.03932 7.26516C5.16932 6.05016 6.53332 6.05016 6.76932 6.05216C7.60732 6.06116 8.35332 6.47816 8.92933 7.18616C9.35933 7.71416 10.1763 7.82516 10.7863 7.82516C11.3963 7.82516 12.2133 7.71416 12.6433 7.18616C13.2193 6.47816 13.9663 6.08616 14.8033 6.05216C15.7543 6.01716 16.7573 6.45516 17.5333 7.26516C18.9023 8.69216 21.5883 12.6302 16.9833 18.3722Z" fill="black" fill-opacity="0.8"/>
</svg>
