<svg width="24" height="24" viewBox="0 0 24 24" fill="none" xmlns="http://www.w3.org/2000/svg">
<path d="M17.5 24C16.5929 24.0242 15.6928 23.8341 14.8729 23.4453C14.053 23.0564 13.3363 22.4797 12.781 21.762C12.3494 21.1744 11.7768 20.705 11.116 20.3971C10.4552 20.0891 9.72749 19.9526 9 20C4.206 20 0 15.327 0 10C0.0029116 7.34873 1.05742 4.80688 2.93215 2.93215C4.80688 1.05742 7.34873 0.0029116 10 0C19.772 0 24 11.588 24 17.5C23.9979 19.2233 23.3124 20.8753 22.0939 22.0939C20.8753 23.3124 19.2233 23.9979 17.5 24ZM10 2C-0.468 2.379 -0.38 17.105 9 18C10.0017 17.954 10.9999 18.1478 11.9116 18.5652C12.8234 18.9826 13.6223 19.6117 14.242 20.4C16.578 23.651 22.1 21.573 22 17.5C22 12.938 18.547 2 10 2ZM6.707 13.707L13.707 6.707C13.8892 6.5184 13.99 6.2658 13.9877 6.0036C13.9854 5.7414 13.8802 5.49059 13.6948 5.30518C13.5094 5.11977 13.2586 5.0146 12.9964 5.01233C12.7342 5.01005 12.4816 5.11084 12.293 5.293L5.293 12.293C5.11084 12.4816 5.01005 12.7342 5.01233 12.9964C5.0146 13.2586 5.11977 13.5094 5.30518 13.6948C5.49059 13.8802 5.7414 13.9854 6.0036 13.9877C6.2658 13.99 6.5184 13.8892 6.707 13.707ZM10.707 15.707L16.707 9.707C16.8892 9.5184 16.99 9.2658 16.9877 9.0036C16.9854 8.7414 16.8802 8.49059 16.6948 8.30518C16.5094 8.11977 16.2586 8.0146 15.9964 8.01233C15.7342 8.01005 15.4816 8.11084 15.293 8.293L9.293 14.293C9.11084 14.4816 9.01005 14.7342 9.01233 14.9964C9.0146 15.2586 9.11977 15.5094 9.30518 15.6948C9.49059 15.8802 9.7414 15.9854 10.0036 15.9877C10.2658 15.99 10.5184 15.8892 10.707 15.707ZM14.707 17.707L18.707 13.707C18.8892 13.5184 18.99 13.2658 18.9877 13.0036C18.9854 12.7414 18.8802 12.4906 18.6948 12.3052C18.5094 12.1198 18.2586 12.0146 17.9964 12.0123C17.7342 12.01 17.4816 12.1108 17.293 12.293L13.293 16.293C13.1108 16.4816 13.01 16.7342 13.0123 16.9964C13.0146 17.2586 13.1198 17.5094 13.3052 17.6948C13.4906 17.8802 13.7414 17.9854 14.0036 17.9877C14.2658 17.99 14.5184 17.8892 14.707 17.707ZM18.707 19.707L19.707 18.707C19.8892 18.5184 19.99 18.2658 19.9877 18.0036C19.9854 17.7414 19.8802 17.4906 19.6948 17.3052C19.5094 17.1198 19.2586 17.0146 18.9964 17.0123C18.7342 17.01 18.4816 17.1108 18.293 17.293L17.293 18.293C17.1108 18.4816 17.01 18.7342 17.0123 18.9964C17.0146 19.2586 17.1198 19.5094 17.3052 19.6948C17.4906 19.8802 17.7414 19.9854 18.0036 19.9877C18.2658 19.99 18.5184 19.8892 18.707 19.707ZM5.707 8.707L8.707 5.707C8.88916 5.5184 8.98995 5.2658 8.98767 5.0036C8.9854 4.7414 8.88023 4.49059 8.69482 4.30518C8.50941 4.11977 8.2586 4.0146 7.9964 4.01233C7.7342 4.01005 7.4816 4.11084 7.293 4.293L4.293 7.293C4.11084 7.4816 4.01005 7.7342 4.01233 7.9964C4.0146 8.2586 4.11977 8.50941 4.30518 8.69482C4.49059 8.88023 4.7414 8.9854 5.0036 8.98767C5.2658 8.98995 5.5184 8.88916 5.707 8.707Z" fill="black" fill-opacity="0.8"/>
</svg>
