<svg width="25" height="24" viewBox="0 0 25 24" fill="none" xmlns="http://www.w3.org/2000/svg">
<path fill-rule="evenodd" clip-rule="evenodd" d="M12.6665 24C19.2939 24 24.6665 18.6274 24.6665 12C24.6665 5.37258 19.2939 0 12.6665 0C6.03909 0 0.666504 5.37258 0.666504 12C0.666504 18.6274 6.03909 24 12.6665 24ZM13.6483 6.54545C13.6483 6.00321 13.2087 5.56364 12.6665 5.56364C12.1243 5.56364 11.6847 6.00321 11.6847 6.54545V11.0182H7.21196C6.66972 11.0182 6.23014 11.4578 6.23014 12C6.23014 12.5422 6.66972 12.9818 7.21196 12.9818H11.6847V17.4545C11.6847 17.9968 12.1243 18.4364 12.6665 18.4364C13.2087 18.4364 13.6483 17.9968 13.6483 17.4545V12.9818H18.121C18.6633 12.9818 19.1029 12.5422 19.1029 12C19.1029 11.4578 18.6633 11.0182 18.121 11.0182H13.6483V6.54545Z" fill="black" fill-opacity="0.8"/>
</svg>
