<svg width="24" height="24" viewBox="0 0 24 24" fill="none" xmlns="http://www.w3.org/2000/svg">
<path d="M19.665 11C20.242 9.632 20.792 7.682 20.981 6.287C21.161 4.961 20.04 3.836 18.714 4.02C16.615 4.31 13.55 5.146 12.306 6.389C11.059 7.636 10.705 9.438 11.244 11" stroke="#313131" stroke-width="2" stroke-miterlimit="10" stroke-linecap="round" stroke-linejoin="round"/>
<path d="M15.0001 3.99998C15.0111 3.28298 14.7871 2.54598 14.3271 1.98498C13.6811 1.19698 12.6281 0.91398 11.6141 1.02698C10.7311 1.12498 10.1971 1.45098 9.8251 1.86698C9.6481 2.06498 9.3541 2.06598 9.1761 1.86898C8.7741 1.41798 8.1841 1.07398 7.1681 1.00798C6.3961 0.95798 5.5891 1.12898 5.0071 1.63998C3.7111 2.77398 3.6661 4.87398 4.8711 6.07898" stroke="#313131" stroke-width="2" stroke-miterlimit="10" stroke-linecap="round" stroke-linejoin="round"/>
<path d="M17 8L14 11" stroke="#313131" stroke-width="2" stroke-miterlimit="10" stroke-linecap="round" stroke-linejoin="round"/>
<path d="M3.126 11C3.044 10.68 3 10.345 3 10C3 7.791 4.791 6 7 6C9.209 6 11 7.791 11 10C11 10.345 10.956 10.68 10.874 11" stroke="#313131" stroke-width="2" stroke-miterlimit="10" stroke-linecap="round" stroke-linejoin="round"/>
<path d="M13.7178 5.43604C13.7178 5.43604 17.1028 4.20504 16.9998 1.00004" stroke="#313131" stroke-width="2" stroke-miterlimit="10" stroke-linecap="round" stroke-linejoin="round"/>
<path d="M10.1389 23H13.8619C15.9349 23 17.9529 22.221 19.4229 20.757C21.0519 19.136 22.2389 17.054 22.8759 14.87C23.4409 12.938 22.0099 11 19.9979 11H4.00192C1.99092 11 0.559916 12.938 1.12392 14.87C1.76192 17.054 2.94892 19.136 4.57692 20.757C6.04692 22.221 8.06592 23 10.1389 23Z" stroke="#313131" stroke-width="2" stroke-miterlimit="10" stroke-linecap="round" stroke-linejoin="round"/>
</svg>
